PathFileType	4	(X/Y/Z)	Patient4_TMGait_0pt5_02_right_25.trc.trc
DataRate	CameraRate	NumFrames	NumMarkers	Units	OrigDataRate	OrigDataStartFrame	OrigNumFrames
76.923076923077	76.923076923077	4	33	mm	76.923076923077	1	       141
Frame#	Time	Sacral			L.Shoulder			Chest			R.Shoulder			Neck			R.ASIS			L.ASIS			R.Thigh.Superior			R.Thigh.Lateral			R.Thigh.Inferior			R.Patella			L.Thigh.Superior			L.Thigh.Lateral			L.Thigh.Inferior			L.Patella			L.Shank.Superior			L.Shank.Lateral			L.Shank.Inferior			R.Shank.Superior			R.Shank.Lateral			R.Shank.Inferior			R.Heel			R.Midfoot.Superior			R.Midfoot.Lateral			R.Toe			L.Heel			L.Midfoot.Lateral			L.Midfoot.Superior			L.Toe			L.Elbow			L.Wrist			R.Elbow			R.Wrist			
		X1	Y1	Z1	X2	Y2	Z2	X3	Y3	Z3	X4	Y4	Z4	X5	Y5	Z5	X6	Y6	Z6	X7	Y7	Z7	X8	Y8	Z8	X9	Y9	Z9	X10	Y10	Z10	X11	Y11	Z11	X12	Y12	Z12	X13	Y13	Z13	X14	Y14	Z14	X15	Y15	Z15	X16	Y16	Z16	X17	Y17	Z17	X18	Y18	Z18	X19	Y19	Z19	X20	Y20	Z20	X21	Y21	Z21	X22	Y22	Z22	X23	Y23	Z23	X24	Y24	Z24	X25	Y25	Z25	X26	Y26	Z26	X27	Y27	Z27	X28	Y28	Z28	X29	Y29	Z29	X30	Y30	Z30	X31	Y31	Z31	X32	Y32	Z32	X33	Y33	Z33	

1	32.590000000000	557.615704396626	1011.115707559107	426.599807223934	746.959056288119	1429.914095124858	236.320038845296	835.117997022026	1368.995843253669	409.662870363304	736.915121998292	1453.219129779175	571.699814183049	734.970183275582	1499.733592909667	383.591964731488	774.833220540464	952.262841219687	559.418726377033	781.592326965836	963.967514108803	284.561695935574	863.186714154251	786.208902103948	540.336302850353	821.845940133132	663.866630460264	612.247476940993	919.210046431090	627.047999579212	541.363130009814	942.176531347377	516.514579401914	565.653268211697	815.562895196138	749.723637181271	315.149264588190	720.046856191219	638.291913501981	259.491755293609	799.359356727690	557.750808386723	323.919302522541	795.369382656804	489.223958930438	335.689392226388	770.375683930093	418.769684646914	329.901438773981	680.344859886457	301.671967402030	284.544758760763	734.327027721698	194.362137192150	360.834905929066	874.420072253211	435.599840509441	565.737276570041	755.441080305280	379.003280011874	616.101904578322	759.494271392785	269.539009953739	566.286844120242	570.561962904408	178.447590092038	521.785935693542	742.995505641338	148.800680223593	576.978530184362	632.192105262349	131.748710986807	602.159882734192	821.953125305147	49.216552927042	615.476906937307	609.122876006568	38.148625621034	413.520168217887	682.422355865920	34.319680290872	331.616772586315	765.822835701732	95.778690745587	355.668913701068	894.063902481872	44.369925518096	328.303399235853	762.111612654629	1079.358610806608	108.707156434502	974.627730402427	928.964767662903	114.899545562232	639.727051115659	1125.698516409447	699.619488112002	668.944819700253	865.973781430307	717.609221873962	
2	32.603000000000	556.747671247240	1010.889017399078	425.871393658680	747.902981130197	1428.982032976257	235.013413298144	834.350930638504	1368.822171519851	409.372701961052	734.876388638562	1453.914914484178	570.135435995635	734.534173208969	1499.425176545961	381.728962323297	773.490630450226	952.622079124532	559.666281743637	781.644313055948	964.080630430250	284.823205960398	862.352133287244	787.559907105523	540.233317083420	822.656602166163	664.930185692364	612.457023398985	919.379355116040	628.699365520329	540.615740013249	944.295957668672	520.054732949287	565.420591680074	813.777944844760	749.149838809223	315.325974364694	717.149116955175	638.327081749329	259.304406641785	795.631943895501	557.200648808563	323.705823923893	791.032748211721	488.780337670690	335.504402310699	765.629199941510	418.412360776317	329.843157779373	674.972902031446	301.862338856345	284.398587225548	728.231549001317	194.230913404054	360.710954608935	880.651093849533	437.458860063759	566.318708075517	765.775229672969	374.927944883715	617.439625906850	776.115393546476	265.969785996287	568.180819763727	593.877282051786	164.184012224589	524.520787411357	766.747691054643	144.937258984874	579.608110602589	657.823025573029	121.716106136701	605.203314950717	850.978652695976	50.764042313772	618.386605240532	602.277523580712	38.308799790810	413.353066699441	675.558810939752	34.333147501780	331.552494177376	759.048835244599	95.746192324636	355.587709793998	887.245104054809	44.167930685370	328.291142769834	767.411854843657	1079.122605247951	107.312603083822	983.897866645198	935.415145844818	114.611967011054	629.564069064484	1130.090575922688	698.490125371246	650.291597119810	870.524921099948	720.607472706743	
3	32.616000000000	555.903077630942	1010.650478777617	425.183791991392	748.793856151538	1428.028324607424	233.741742559525	833.587141959484	1368.642433409450	409.091172231375	732.863476658369	1454.601738106201	568.603996335478	734.090384816633	1499.100344765644	379.896932261517	772.170498082259	952.943609772024	559.934231943242	781.659316297744	964.165918707490	285.107680656600	861.434928011128	788.772757940786	540.151635766289	823.275258277066	665.874679932990	612.676541714459	919.370944053667	630.197929852853	539.907126873882	946.207795404238	523.479346144947	565.186346496112	812.007596434290	748.567947793030	315.533148210764	714.275269283041	638.353173533022	259.151178449329	791.923343012774	556.649627279556	323.530987330295	786.705416475411	488.326610510400	335.368929987838	760.910626238506	418.047130366115	329.815951030928	669.640256375248	302.042424557451	284.276251584345	722.182628883771	194.093871922787	360.612753520450	886.698187180241	439.263504334761	566.901096795842	776.015904909205	370.853812777244	618.799842195012	792.630482025713	262.499566770769	570.081962212076	617.243225534598	150.136282902275	527.268766248025	790.404917608784	141.265391103907	582.235876241015	683.442569410753	111.916554961324	608.242484124184	879.819962449456	52.562173941440	621.279677915333	595.481953139816	38.456914850712	413.198278345471	668.743833526143	34.346267075596	331.495134181836	752.319379507667	95.712609848528	355.517285928261	880.472265534844	43.968699691685	328.280389281730	772.633408668588	1078.857902024964	105.991895975879	992.983048586436	941.749165669379	114.393234904323	619.623033709202	1134.446732740647	697.390465591229	632.022501717753	875.087910248435	723.499455228880	
4	32.629000000000	555.105634856764	1010.386243027412	424.579374530870	749.575885097325	1427.044393532747	232.550452875661	832.829430467686	1368.451025304254	408.833903277547	730.909360400026	1455.261654921035	567.151533748244	733.628173047427	1498.746785850097	378.144479235352	770.904394682321	953.195382261387	560.244533742782	781.613837447955	964.199581798898	285.436117048124	860.379665120627	789.720557819301	540.129374075046	823.535513214902	666.588970855386	612.925121877837	919.038960018649	631.397941497810	539.294136658008	947.717191469231	526.660063438508	564.961191475384	810.260088774593	747.969312156549	315.802204406108	711.439414664375	638.365116885809	259.062347376978	788.236397396958	556.097360329960	323.432310079988	782.386754326843	487.859799693287	335.320306263640	756.229609420848	417.672301687579	329.844781173064	664.365596553980	302.207025132263	284.198085335333	716.209251905971	193.949365468682	360.559577876869	892.369355469560	440.958604713694	567.490590672187	786.029686825203	366.810092654371	620.193362880261	808.863773035655	259.245866675713	571.987251329117	640.581265555684	136.595868160003	530.023412858164	813.772045351169	137.973548432984	584.837781419071	708.912592547679	102.614858748391	611.245737426401	908.175372267227	54.804509772752	624.103126757811	588.771799674409	38.584413355434	413.066230856678	662.012823091308	34.359755162514	331.450116408825	745.667111984298	95.678214453182	355.465348448717	873.778599577082	43.775873574365	328.272023487699	777.675158670907	1078.542222313735	104.833650007088	1001.670891416215	947.830118330990	114.326709639826	610.143131342537	1138.702358312769	696.359477780184	614.565721458188	879.629822226720	726.188857701962	
